<svg xmlns="http://www.w3.org/2000/svg" viewBox="0 0 400 100">
    <rect x="0" y="0" width="50" height="50" fill="none" stroke="black" stroke-width="2"/><rect x="0" y="50" width="50" height="50" fill="none" stroke="black" stroke-width="2"/><rect x="50" y="0" width="50" height="50" fill="none" stroke="black" stroke-width="2"/><rect x="50" y="50" width="50" height="50" fill="none" stroke="black" stroke-width="2"/><rect x="100" y="0" width="50" height="50" fill="none" stroke="black" stroke-width="2"/><rect x="100" y="50" width="50" height="50" fill="none" stroke="black" stroke-width="2"/><rect x="150" y="0" width="50" height="50" fill="none" stroke="black" stroke-width="2"/><rect x="150" y="50" width="50" height="50" fill="none" stroke="black" stroke-width="2"/><rect x="200" y="0" width="50" height="50" fill="none" stroke="black" stroke-width="2"/><rect x="200" y="50" width="50" height="50" fill="none" stroke="black" stroke-width="2"/><rect x="250" y="0" width="50" height="50" fill="none" stroke="black" stroke-width="2"/><rect x="250" y="50" width="50" height="50" fill="none" stroke="black" stroke-width="2"/><rect x="300" y="0" width="50" height="50" fill="none" stroke="black" stroke-width="2"/><rect x="300" y="50" width="50" height="50" fill="none" stroke="black" stroke-width="2"/><rect x="350" y="0" width="50" height="50" fill="none" stroke="black" stroke-width="2"/><rect x="350" y="50" width="50" height="50" fill="none" stroke="black" stroke-width="2"/>
  </svg>