<svg xmlns="http://www.w3.org/2000/svg" viewBox="0 0 400 400">
    <rect x="0" y="0" width="100" height="100" fill="none" stroke="black" stroke-width="2"/><rect x="0" y="100" width="100" height="100" fill="none" stroke="black" stroke-width="2"/><rect x="0" y="200" width="100" height="100" fill="none" stroke="black" stroke-width="2"/><rect x="0" y="300" width="100" height="100" fill="none" stroke="black" stroke-width="2"/><rect x="100" y="0" width="100" height="100" fill="none" stroke="black" stroke-width="2"/><rect x="100" y="100" width="100" height="100" fill="none" stroke="black" stroke-width="2"/><rect x="100" y="200" width="100" height="100" fill="none" stroke="black" stroke-width="2"/><rect x="100" y="300" width="100" height="100" fill="none" stroke="black" stroke-width="2"/><rect x="200" y="0" width="100" height="100" fill="none" stroke="black" stroke-width="2"/><rect x="200" y="100" width="100" height="100" fill="none" stroke="black" stroke-width="2"/><rect x="200" y="200" width="100" height="100" fill="none" stroke="black" stroke-width="2"/><rect x="200" y="300" width="100" height="100" fill="none" stroke="black" stroke-width="2"/><rect x="300" y="0" width="100" height="100" fill="none" stroke="black" stroke-width="2"/><rect x="300" y="100" width="100" height="100" fill="none" stroke="black" stroke-width="2"/><rect x="300" y="200" width="100" height="100" fill="none" stroke="black" stroke-width="2"/><rect x="300" y="300" width="100" height="100" fill="none" stroke="black" stroke-width="2"/>
  </svg>